<svg width="832" height="832" viewBox="0 0 832 832" fill="none" xmlns="http://www.w3.org/2000/svg">
<g clip-path="url(#clip0_603_2168)">
<rect width="832" height="832" rx="90" fill="white"/>
<rect width="832" height="416" fill="#00DE00"/>
<rect y="565" width="832" height="264" fill="#005AE5"/>
<mask id="path-4-outside-1_603_2168" maskUnits="userSpaceOnUse" x="287" y="437" width="244" height="115" fill="black">
<rect fill="white" x="287" y="437" width="244" height="115"/>
<path d="M410.16 442.64L408.84 452.84H379.56L374.76 485.72H407.04L405.72 496.04H321.12C318.48 510.2 313.32 529.76 306.6 548.84H291.84C301.68 524.72 306.6 505.4 309.36 485.72H336.96L342.12 452.84H310.92L312.24 442.64H410.16ZM361.8 485.72L366.84 452.84H354.96L349.92 485.72H361.8ZM326.52 457.52C328.44 464.36 331.32 473.72 333.96 480.68H320.52C318.48 474.08 315.84 464.96 313.8 457.52H326.52ZM392.88 480.68H379.32C383.52 473.72 387.84 463.88 390.36 457.52H402.96C400.08 464.96 396.24 474.08 392.88 480.68ZM525.6 492.92H508.68L504.36 520.4H524.28L520.68 530.84H490.08L496.08 492.92H484.08C482.04 505.04 476.28 517.88 466.44 529.88H449.76C463.32 515.6 469.2 504.56 471 492.92H453.72L455.04 482.72H485.88L488.16 467.24H472.8C468.72 472.4 463.32 476.84 456.24 479.84L458.76 465.56C464.88 461.12 468.96 452.6 470.4 444.8H482.76C482.04 448.88 480.72 452.96 478.92 457.04H489.72L492.24 440.84H504.84L502.44 457.04H526.44L524.88 467.24H501L498.72 482.72H527.04L525.6 492.92ZM451.92 467.84H436.68C433.56 459.2 430.56 450.68 427.32 440.96H440.52C443.52 448.88 447.36 457.76 451.92 467.84ZM439.8 526.04C453.96 535.88 472.68 537.2 491.76 537.2H523.68L519.48 548.84H486.6C465.96 548.84 449.04 545.72 434.4 536.24C431.76 540.8 429.12 545.12 426.6 548.84H411C419.76 537.2 427.32 524.12 432 512.96L434.52 492.68C434.64 491.24 434.4 490.64 432.96 490.64H420.96L422.64 480.56H441.84C446.52 480.56 448.08 481.88 447.6 486.68L444.24 516.56C443.04 519.44 441.48 522.68 439.8 526.04Z"/>
</mask>
<path d="M410.16 442.64L408.84 452.84H379.56L374.76 485.72H407.04L405.72 496.04H321.12C318.48 510.2 313.32 529.76 306.6 548.84H291.84C301.68 524.72 306.6 505.4 309.36 485.72H336.96L342.12 452.84H310.92L312.24 442.64H410.16ZM361.8 485.72L366.84 452.84H354.96L349.92 485.72H361.8ZM326.52 457.52C328.44 464.36 331.32 473.72 333.96 480.68H320.52C318.48 474.08 315.84 464.96 313.8 457.52H326.52ZM392.88 480.68H379.32C383.52 473.72 387.84 463.88 390.36 457.52H402.96C400.08 464.96 396.24 474.08 392.88 480.68ZM525.6 492.92H508.68L504.36 520.4H524.28L520.68 530.84H490.08L496.08 492.92H484.08C482.04 505.04 476.28 517.88 466.44 529.88H449.76C463.32 515.6 469.2 504.56 471 492.92H453.72L455.04 482.72H485.88L488.16 467.24H472.8C468.72 472.4 463.32 476.84 456.24 479.84L458.76 465.56C464.88 461.12 468.96 452.6 470.4 444.8H482.76C482.04 448.88 480.72 452.96 478.92 457.04H489.72L492.24 440.84H504.84L502.44 457.04H526.44L524.88 467.24H501L498.72 482.72H527.04L525.6 492.92ZM451.92 467.84H436.68C433.56 459.2 430.56 450.68 427.32 440.96H440.52C443.52 448.88 447.36 457.76 451.92 467.84ZM439.8 526.04C453.96 535.88 472.68 537.2 491.76 537.2H523.68L519.48 548.84H486.6C465.96 548.84 449.04 545.72 434.4 536.24C431.76 540.8 429.12 545.12 426.6 548.84H411C419.76 537.2 427.32 524.12 432 512.96L434.52 492.68C434.64 491.24 434.4 490.64 432.96 490.64H420.96L422.64 480.56H441.84C446.52 480.56 448.08 481.88 447.6 486.68L444.24 516.56C443.04 519.44 441.48 522.68 439.8 526.04Z" fill="black"/>
<path d="M410.16 442.64L413.135 443.025L413.573 439.64H410.16V442.64ZM408.84 452.84V455.84H411.477L411.815 453.225L408.84 452.84ZM379.56 452.84V449.84H376.966L376.591 452.407L379.56 452.84ZM374.76 485.72L371.791 485.287L371.29 488.72H374.76V485.72ZM407.04 485.72L410.016 486.101L410.448 482.72H407.04V485.72ZM405.72 496.04V499.04H408.361L408.696 496.421L405.72 496.04ZM321.12 496.04V493.04H318.628L318.171 495.49L321.12 496.04ZM306.6 548.84V551.84H308.724L309.43 549.837L306.6 548.84ZM291.84 548.84L289.062 547.707L287.376 551.84H291.84V548.84ZM309.36 485.72V482.72H306.751L306.389 485.303L309.36 485.72ZM336.96 485.72V488.72H339.526L339.924 486.185L336.96 485.72ZM342.12 452.84L345.084 453.305L345.628 449.84H342.12V452.84ZM310.92 452.84L307.945 452.455L307.507 455.84H310.92V452.84ZM312.24 442.64V439.64H309.603L309.265 442.255L312.24 442.64ZM361.8 485.72V488.72H364.375L364.765 486.175L361.8 485.72ZM366.84 452.84L369.805 453.295L370.335 449.84H366.84V452.84ZM354.96 452.84V449.84H352.385L351.995 452.385L354.96 452.84ZM349.92 485.72L346.955 485.265L346.425 488.72H349.92V485.72ZM326.52 457.52L329.408 456.709L328.794 454.52H326.52V457.52ZM333.96 480.68V483.68H338.306L336.765 479.616L333.96 480.68ZM320.52 480.68L317.654 481.566L318.307 483.68H320.52V480.68ZM313.8 457.52V454.52H309.867L310.907 458.313L313.8 457.52ZM392.88 480.68V483.68H394.719L395.553 482.041L392.88 480.68ZM379.32 480.68L376.751 479.13L374.006 483.68H379.32V480.68ZM390.36 457.52V454.52H388.322L387.571 456.415L390.36 457.52ZM402.96 457.52L405.758 458.603L407.338 454.52H402.96V457.52ZM407.185 442.255L405.865 452.455L411.815 453.225L413.135 443.025L407.185 442.255ZM408.84 449.84H379.56V455.84H408.84V449.84ZM376.591 452.407L371.791 485.287L377.729 486.153L382.529 453.273L376.591 452.407ZM374.76 488.72H407.04V482.72H374.76V488.72ZM404.064 485.339L402.744 495.659L408.696 496.421L410.016 486.101L404.064 485.339ZM405.72 493.04H321.12V499.04H405.72V493.04ZM318.171 495.49C315.562 509.483 310.445 528.893 303.77 547.843L309.43 549.837C316.195 530.627 321.398 510.917 324.069 496.59L318.171 495.49ZM306.6 545.84H291.84V551.84H306.6V545.84ZM294.618 549.973C304.548 525.632 309.535 506.072 312.331 486.137L306.389 485.303C303.665 504.728 298.812 523.808 289.062 547.707L294.618 549.973ZM309.36 488.72H336.96V482.72H309.36V488.72ZM339.924 486.185L345.084 453.305L339.156 452.375L333.996 485.255L339.924 486.185ZM342.12 449.84H310.92V455.84H342.12V449.84ZM313.895 453.225L315.215 443.025L309.265 442.255L307.945 452.455L313.895 453.225ZM312.24 445.64H410.16V439.64H312.24V445.64ZM364.765 486.175L369.805 453.295L363.875 452.385L358.835 485.265L364.765 486.175ZM366.84 449.84H354.96V455.84H366.84V449.84ZM351.995 452.385L346.955 485.265L352.885 486.175L357.925 453.295L351.995 452.385ZM349.92 488.72H361.8V482.72H349.92V488.72ZM323.632 458.331C325.563 465.21 328.47 474.665 331.155 481.744L336.765 479.616C334.17 472.775 331.317 463.51 329.408 456.709L323.632 458.331ZM333.96 477.68H320.52V483.68H333.96V477.68ZM323.386 479.794C321.357 473.23 318.726 464.142 316.693 456.727L310.907 458.313C312.954 465.778 315.603 474.93 317.654 481.566L323.386 479.794ZM313.8 460.52H326.52V454.52H313.8V460.52ZM392.88 477.68H379.32V483.68H392.88V477.68ZM381.889 482.23C386.217 475.056 390.609 465.034 393.149 458.625L387.571 456.415C385.071 462.726 380.823 472.384 376.751 479.13L381.889 482.23ZM390.36 460.52H402.96V454.52H390.36V460.52ZM400.162 456.437C397.298 463.837 393.5 472.85 390.207 479.319L395.553 482.041C398.98 475.31 402.862 466.083 405.758 458.603L400.162 456.437ZM525.6 492.92V495.92H528.206L528.571 493.339L525.6 492.92ZM508.68 492.92V489.92H506.115L505.716 492.454L508.68 492.92ZM504.36 520.4L501.396 519.934L500.852 523.4H504.36V520.4ZM524.28 520.4L527.116 521.378L528.488 517.4H524.28V520.4ZM520.68 530.84V533.84H522.819L523.516 531.818L520.68 530.84ZM490.08 530.84L487.117 530.371L486.568 533.84H490.08V530.84ZM496.08 492.92L499.043 493.389L499.592 489.92H496.08V492.92ZM484.08 492.92V489.92H481.543L481.122 492.422L484.08 492.92ZM466.44 529.88V532.88H467.86L468.76 531.782L466.44 529.88ZM449.76 529.88L447.585 527.814L442.774 532.88H449.76V529.88ZM471 492.92L473.965 493.378L474.5 489.92H471V492.92ZM453.72 492.92L450.745 492.535L450.307 495.92H453.72V492.92ZM455.04 482.72V479.72H452.403L452.065 482.335L455.04 482.72ZM485.88 482.72V485.72H488.471L488.848 483.157L485.88 482.72ZM488.16 467.24L491.128 467.677L491.634 464.24H488.16V467.24ZM472.8 467.24V464.24H471.348L470.447 465.379L472.8 467.24ZM456.24 479.84L453.286 479.319L452.326 484.757L457.41 482.602L456.24 479.84ZM458.76 465.56L456.998 463.132L456.016 463.844L455.806 465.039L458.76 465.56ZM470.4 444.8V441.8H467.903L467.45 444.255L470.4 444.8ZM482.76 444.8L485.714 445.321L486.336 441.8H482.76V444.8ZM478.92 457.04L476.175 455.829L474.317 460.04H478.92V457.04ZM489.72 457.04V460.04H492.289L492.684 457.501L489.72 457.04ZM492.24 440.84V437.84H489.671L489.276 440.379L492.24 440.84ZM504.84 440.84L507.808 441.28L508.317 437.84H504.84V440.84ZM502.44 457.04L499.472 456.6L498.963 460.04H502.44V457.04ZM526.44 457.04L529.406 457.494L529.934 454.04H526.44V457.04ZM524.88 467.24V470.24H527.456L527.846 467.694L524.88 467.24ZM501 467.24V464.24H498.409L498.032 466.803L501 467.24ZM498.72 482.72L495.752 482.283L495.246 485.72H498.72V482.72ZM527.04 482.72L530.011 483.139L530.493 479.72H527.04V482.72ZM451.92 467.84V470.84H456.57L454.653 466.603L451.92 467.84ZM436.68 467.84L433.858 468.859L434.574 470.84H436.68V467.84ZM427.32 440.96V437.96H423.158L424.474 441.909L427.32 440.96ZM440.52 440.96L443.325 439.897L442.592 437.96H440.52V440.96ZM439.8 526.04L437.117 524.698L435.955 527.021L438.088 528.504L439.8 526.04ZM523.68 537.2L526.502 538.218L527.952 534.2H523.68V537.2ZM519.48 548.84V551.84H521.587L522.302 549.858L519.48 548.84ZM434.4 536.24L436.031 533.722L433.384 532.008L431.804 534.737L434.4 536.24ZM426.6 548.84V551.84H428.191L429.084 550.523L426.6 548.84ZM411 548.84L408.603 547.036L404.988 551.84H411V548.84ZM432 512.96L434.767 514.12L434.926 513.74L434.977 513.33L432 512.96ZM434.52 492.68L437.497 493.05L437.505 492.99L437.51 492.929L434.52 492.68ZM420.96 490.64L418.001 490.147L417.419 493.64H420.96V490.64ZM422.64 480.56V477.56H420.099L419.681 480.067L422.64 480.56ZM447.6 486.68L450.581 487.015L450.583 486.997L450.585 486.979L447.6 486.68ZM444.24 516.56L447.009 517.714L447.173 517.32L447.221 516.895L444.24 516.56ZM525.6 489.92H508.68V495.92H525.6V489.92ZM505.716 492.454L501.396 519.934L507.324 520.866L511.644 493.386L505.716 492.454ZM504.36 523.4H524.28V517.4H504.36V523.4ZM521.444 519.422L517.844 529.862L523.516 531.818L527.116 521.378L521.444 519.422ZM520.68 527.84H490.08V533.84H520.68V527.84ZM493.043 531.309L499.043 493.389L493.117 492.451L487.117 530.371L493.043 531.309ZM496.08 489.92H484.08V495.92H496.08V489.92ZM481.122 492.422C479.177 503.977 473.662 516.341 464.12 527.978L468.76 531.782C478.898 519.419 484.903 506.103 487.038 493.418L481.122 492.422ZM466.44 526.88H449.76V532.88H466.44V526.88ZM451.935 531.946C465.734 517.415 472.038 505.839 473.965 493.378L468.035 492.462C466.362 503.281 460.906 513.785 447.585 527.814L451.935 531.946ZM471 489.92H453.72V495.92H471V489.92ZM456.695 493.305L458.015 483.105L452.065 482.335L450.745 492.535L456.695 493.305ZM455.04 485.72H485.88V479.72H455.04V485.72ZM488.848 483.157L491.128 467.677L485.192 466.803L482.912 482.283L488.848 483.157ZM488.16 464.24H472.8V470.24H488.16V464.24ZM470.447 465.379C466.657 470.173 461.654 474.288 455.07 477.078L457.41 482.602C464.986 479.392 470.783 474.627 475.153 469.101L470.447 465.379ZM459.194 480.361L461.714 466.081L455.806 465.039L453.286 479.319L459.194 480.361ZM460.522 467.988C467.488 462.934 471.83 453.579 473.35 445.345L467.45 444.255C466.09 451.621 462.272 459.306 456.998 463.132L460.522 467.988ZM470.4 447.8H482.76V441.8H470.4V447.8ZM479.806 444.279C479.135 448.079 477.897 451.927 476.175 455.829L481.665 458.251C483.543 453.993 484.945 449.681 485.714 445.321L479.806 444.279ZM478.92 460.04H489.72V454.04H478.92V460.04ZM492.684 457.501L495.204 441.301L489.276 440.379L486.756 456.579L492.684 457.501ZM492.24 443.84H504.84V437.84H492.24V443.84ZM501.872 440.4L499.472 456.6L505.408 457.48L507.808 441.28L501.872 440.4ZM502.44 460.04H526.44V454.04H502.44V460.04ZM523.474 456.586L521.914 466.786L527.846 467.694L529.406 457.494L523.474 456.586ZM524.88 464.24H501V470.24H524.88V464.24ZM498.032 466.803L495.752 482.283L501.688 483.157L503.968 467.677L498.032 466.803ZM498.72 485.72H527.04V479.72H498.72V485.72ZM524.069 482.301L522.629 492.501L528.571 493.339L530.011 483.139L524.069 482.301ZM451.92 464.84H436.68V470.84H451.92V464.84ZM439.502 466.821C436.387 458.197 433.396 449.702 430.166 440.011L424.474 441.909C427.724 451.658 430.733 460.203 433.858 468.859L439.502 466.821ZM427.32 443.96H440.52V437.96H427.32V443.96ZM437.715 442.023C440.748 450.031 444.619 458.979 449.187 469.076L454.653 466.603C450.101 456.541 446.292 447.729 443.325 439.897L437.715 442.023ZM438.088 528.504C453.102 538.937 472.718 540.2 491.76 540.2V534.2C472.642 534.2 454.818 532.823 441.512 523.576L438.088 528.504ZM491.76 540.2H523.68V534.2H491.76V540.2ZM520.858 536.182L516.658 547.822L522.302 549.858L526.502 538.218L520.858 536.182ZM519.48 545.84H486.6V551.84H519.48V545.84ZM486.6 545.84C466.245 545.84 449.986 542.759 436.031 533.722L432.769 538.758C448.094 548.681 465.675 551.84 486.6 551.84V545.84ZM431.804 534.737C429.183 539.264 426.582 543.518 424.116 547.157L429.084 550.523C431.658 546.722 434.337 542.336 436.996 537.743L431.804 534.737ZM426.6 545.84H411V551.84H426.6V545.84ZM413.397 550.644C422.289 538.829 429.98 525.534 434.767 514.12L429.233 511.8C424.66 522.706 417.231 535.571 408.603 547.036L413.397 550.644ZM434.977 513.33L437.497 493.05L431.543 492.31L429.023 512.59L434.977 513.33ZM437.51 492.929C437.546 492.498 437.57 491.969 437.512 491.43C437.453 490.885 437.29 490.143 436.804 489.43C435.699 487.809 433.918 487.64 432.96 487.64V493.64C433.147 493.64 433.054 493.664 432.83 493.585C432.541 493.483 432.144 493.246 431.846 492.81C431.585 492.427 431.55 492.105 431.547 492.078C431.545 492.056 431.554 492.142 431.53 492.431L437.51 492.929ZM432.96 487.64H420.96V493.64H432.96V487.64ZM423.919 491.133L425.599 481.053L419.681 480.067L418.001 490.147L423.919 491.133ZM422.64 483.56H441.84V477.56H422.64V483.56ZM441.84 483.56C442.899 483.56 443.598 483.638 444.056 483.752C444.49 483.86 444.555 483.963 444.517 483.924C444.416 483.822 444.843 484.101 444.615 486.381L450.585 486.979C450.837 484.459 450.724 481.678 448.793 479.716C446.937 477.829 444.206 477.56 441.84 477.56V483.56ZM444.619 486.345L441.259 516.225L447.221 516.895L450.581 487.015L444.619 486.345ZM441.471 515.406C440.312 518.187 438.79 521.352 437.117 524.698L442.483 527.382C444.17 524.008 445.768 520.693 447.009 517.714L441.471 515.406Z" fill="black" mask="url(#path-4-outside-1_603_2168)"/>
<path d="M216.968 573.56H225.416V623.16C225.416 627.896 224.328 630.008 221.384 631.224C218.44 632.504 214.024 632.76 207.752 632.696C207.368 630.456 205.896 626.808 204.68 624.696C208.904 624.952 213.704 624.888 215.048 624.824C216.456 624.824 216.968 624.376 216.968 623.096V573.56ZM232.392 590.392L239.88 587.576C245.128 596.6 250.44 608.312 252.04 616.312L243.656 619.64C242.312 611.896 237.448 599.8 232.392 590.392ZM200.2 588.216L208.968 589.688C206.792 599.352 203.272 611.32 197.896 618.424C196.04 617.016 192.52 615.224 190.408 614.392C195.592 607.864 198.856 596.6 200.2 588.216ZM282.76 572.728L290.376 573.816C288.84 583.608 285.768 592.824 281.8 598.648C280.2 597.56 276.552 595.896 274.632 595.128C278.856 590.008 281.48 581.496 282.76 572.728ZM275.656 602.68H315.016V610.04H275.656V602.68ZM282.952 581.816H312.584V589.176H282.952V581.816ZM291.912 583.416H299.784V632.696H291.912V583.416ZM259.912 578.36L264.968 573.624C268.424 576.44 273.16 580.6 275.272 583.352L269.96 588.792C267.912 585.912 263.368 581.496 259.912 578.36ZM255.24 592.12H267.08V599.48H255.24V592.12ZM265.544 631.992L264.072 625.144L265.8 622.712L277 615.352C277.448 617.4 278.28 620.344 278.92 621.88C268.488 629.112 266.568 630.648 265.544 631.992ZM265.544 631.992C264.904 630.072 262.792 626.616 261.512 625.08C262.856 624.12 264.584 621.88 264.584 619.064V592.12H272.072V624.696C272.072 624.696 265.544 629.24 265.544 631.992ZM332.936 587.512H364.936V593.976H332.936V587.512ZM335.944 598.84H342.984V624.632H335.944V598.84ZM339.784 598.84H362.12V620.408H339.784V614.008H355.016V605.112H339.784V598.84ZM321.8 575.672H373V582.968H329.224V632.824H321.8V575.672ZM368.712 575.672H376.264V623.992C376.264 627.96 375.496 630.136 373 631.352C370.568 632.632 367.048 632.824 361.608 632.824C361.352 630.712 360.2 627.192 359.048 625.272C362.44 625.4 366.152 625.4 367.24 625.4C368.328 625.336 368.712 624.952 368.712 623.864V575.672ZM395.912 594.552H425.416V601.144H395.912V594.552ZM384.456 608.888H441.736V615.992H384.456V608.888ZM409.096 604.792H416.968V624.568C416.968 628.536 416.008 630.52 412.936 631.672C409.928 632.696 405.832 632.824 400.392 632.824C399.88 630.648 398.472 627.384 397.256 625.4C401.352 625.528 406.152 625.528 407.432 625.528C408.712 625.528 409.096 625.208 409.096 624.312V604.792ZM422.92 594.552H424.84L426.44 594.168L431.304 597.88C426.888 602.616 420.552 607.608 414.28 610.616C413.384 609.336 411.336 607.224 410.184 606.2C415.112 603.64 420.552 599.096 422.92 595.96V594.552ZM385.224 582.84H441.032V598.52H433.416V589.624H392.456V598.52H385.224V582.84ZM429.576 573.112L437.896 575.544C434.952 579.768 431.624 584.12 429 586.936L422.728 584.632C425.16 581.496 428.04 576.696 429.576 573.112ZM389.512 576.248L396.04 573.304C398.344 575.8 400.904 579.256 401.928 581.752L394.952 584.952C394.056 582.584 391.688 578.936 389.512 576.248ZM405.64 574.84L412.424 572.28C414.472 575.096 416.648 579 417.48 581.56L410.184 584.376C409.544 581.816 407.56 577.784 405.64 574.84ZM450.76 579.704H489.032V586.936H450.76V579.704ZM484.616 579.704H492.296V592.248C492.296 594.104 492.552 594.296 493.896 594.296C494.536 594.296 496.904 594.296 497.672 594.296C498.952 594.296 499.272 593.528 499.464 587.64C500.936 588.856 504.264 590.072 506.248 590.648C505.544 599.224 503.56 601.464 498.504 601.464C497.16 601.464 493.896 601.464 492.616 601.464C486.408 601.464 484.616 599.288 484.616 592.376V579.704ZM467.4 572.664H475.336C474.184 587.704 471.304 598.2 451.656 603.512C450.888 601.592 448.968 598.712 447.432 597.176C464.904 593.016 466.504 584.888 467.4 572.664ZM460.04 613.432L467.656 615.864C464.328 621.24 458.76 626.552 453.896 629.816C452.424 628.344 449.416 625.72 447.624 624.504C452.488 621.944 457.352 617.784 460.04 613.432ZM485.32 616.696L491.848 613.368C495.944 616.888 501.448 621.88 504.136 625.336L497.16 629.048C494.792 625.656 489.544 620.408 485.32 616.696ZM472.456 599.8H480.712V624.504C480.712 628.344 479.944 630.328 477.256 631.48C474.632 632.568 471.048 632.696 466.312 632.696C465.928 630.52 464.712 627.384 463.688 625.272C466.568 625.464 470.152 625.464 471.112 625.4C472.136 625.4 472.456 625.144 472.456 624.312V599.8ZM449.032 604.792H504.904V612.024H449.032V604.792ZM536.84 608.888H545.032V614.2C545.032 620.6 541.064 628.152 517.32 632.76C516.36 631.16 514.12 628.216 512.264 626.616C534.792 623.096 536.84 617.912 536.84 613.944V608.888ZM543.112 623.864L547.144 618.488C554.312 620.408 564.616 623.992 570.056 626.744L565.768 632.824C560.776 630.008 550.664 626.104 543.112 623.864ZM519.624 599.992H563.336V619.64H555.08V607.032H527.432V620.408H519.624V599.992ZM564.36 574.072L569.16 579.576C559.816 584.12 546.376 587.384 534.408 589.56C534.088 587.96 533.064 585.464 532.232 583.992C543.944 581.752 556.744 578.232 564.36 574.072ZM541.064 572.92H548.808V588.152C548.808 590.264 549.256 590.52 552.2 590.52C553.48 590.52 559.112 590.52 560.712 590.52C563.08 590.52 563.592 589.688 563.912 584.632C565.448 585.72 568.584 586.808 570.568 587.256C569.8 594.936 567.688 596.984 561.48 596.984C559.688 596.984 552.904 596.984 551.24 596.984C543.112 596.984 541.064 595 541.064 588.216V572.92ZM528.456 572.152L535.368 574.712C530.632 581.112 523.08 587.192 516.488 590.904C515.272 589.496 512.648 586.68 510.984 585.4C517.64 582.392 524.488 577.4 528.456 572.152ZM522.504 582.52L527.56 577.4L530.312 578.104V598.008H522.504V582.52ZM583.432 572.792L589.704 574.712C587.08 582.072 582.6 589.624 577.608 594.424C577.096 592.888 575.432 589.112 574.28 587.448C578.12 583.864 581.448 578.488 583.432 572.792ZM583.048 578.68H598.152V585.528H581.64L583.048 578.68ZM584.2 632.632L582.92 625.912L584.904 623.48L597.832 616.504C598.088 618.424 598.728 621.24 599.176 622.712C587.464 629.688 585.416 631.224 584.2 632.632ZM580.04 590.84H597.256V597.688H580.04V590.84ZM576.264 603.96H598.664V610.808H576.264V603.96ZM599.88 580.536H634.12V586.936H599.88V580.536ZM605.448 601.72H628.552V607.928H605.448V601.72ZM605.448 612.536H628.552V618.872H605.448V612.536ZM601.096 590.904H628.104V597.368H607.624V632.632H601.096V590.904ZM625.992 590.904H632.776V625.4C632.776 628.28 632.392 630.2 630.664 631.352C628.936 632.44 626.76 632.568 623.88 632.568C623.624 630.712 622.856 627.832 621.96 626.04C623.432 626.104 624.776 626.104 625.288 626.104C625.8 626.104 625.992 625.912 625.992 625.272V590.904ZM613.384 572.664H620.296V596.6H619.976V632.248H613.704V596.6H613.384V572.664ZM621.704 575.864L626.248 572.472C628.36 574.136 631.432 576.568 632.968 578.104L628.232 582.008C626.76 580.408 623.88 577.784 621.704 575.864ZM584.2 632.632C583.624 630.776 582.024 627.576 580.744 625.976C582.152 625.08 584.136 623.096 584.136 620.28V592.248H590.984V625.976C590.984 625.976 584.2 630.072 584.2 632.632Z" fill="white"/>
</g>
<defs>
<clipPath id="clip0_603_2168">
<rect width="832" height="832" rx="90" fill="white"/>
</clipPath>
</defs>
</svg>
